<?xml version="1.0" ?><svg xmlns="http://www.w3.org/2000/svg" xmlns:svg="http://www.w3.org/2000/svg" version="1.1" id="Version_1.0" x="0px" y="0px" width="35px" height="35px" viewBox="0 0 400 400" enable-background="new 0 0 400 400" xml:space="preserve" shape-rendering="crispEdges"><g><line fill="none" stroke="#000000" stroke-width="4.93" stroke-linejoin="round" stroke-miterlimit="10" x1="53.967999" y1="19.881001" x2="53.967999" y2="102.712" id="line2"/><line fill="none" stroke="#000000" stroke-width="4.93" stroke-linejoin="round" stroke-miterlimit="10" x1="136.799" y1="19.881001" x2="136.799" y2="102.712" id="line4"/><line fill="none" stroke="#000000" stroke-width="4.93" stroke-linejoin="round" stroke-miterlimit="10" x1="53.967999" y1="21.881001" x2="136.799" y2="21.881001" id="line6"/><line fill="none" stroke="#000000" stroke-width="4.93" stroke-linejoin="round" stroke-miterlimit="10" x1="53.967999" y1="101.712" x2="134.86301" y2="194.293" id="line8"/><line fill="none" stroke="#000000" stroke-width="4.93" stroke-linejoin="round" stroke-miterlimit="10" x1="95.438004" y1="149.11" x2="136.799" y2="101.712" id="line10"/><line fill="none" stroke="#000000" stroke-width="3.3174" x1="295.37299" y1="367.16699" x2="332.353" y2="289.83301" id="line12"/><line fill="none" stroke="#000000" stroke-width="3.3174" x1="283.05701" y1="370.91699" x2="336.10699" y2="261.5" id="line14"/><line fill="none" stroke="#000000" stroke-width="3.3174" x1="268.80099" y1="372.01801" x2="337.703" y2="236.16701" id="line16"/><line fill="none" stroke="#000000" stroke-width="3.3174" x1="257.15601" y1="370.354" x2="335.375" y2="215.259" id="line18"/><line fill="none" stroke="#000000" stroke-width="3.3174" x1="246.492" y1="367.16699" x2="329.90601" y2="202.09399" id="line20"/><line fill="none" stroke="#000000" stroke-width="3.3174" x1="232.17599" y1="364.16501" x2="323.68799" y2="189.25999" id="line22"/><line fill="none" stroke="#000000" stroke-width="3.3174" x1="221.495" y1="360.854" x2="316.83099" y2="181.22701" id="line24"/><line fill="none" stroke="#000000" stroke-width="3.3174" x1="211.69501" y1="357.02499" x2="307.267" y2="172.05499" id="line26"/><line fill="none" stroke="#000000" stroke-width="3.3174" x1="202.67999" y1="353.18799" x2="298.81601" y2="165.086" id="line28"/><line fill="none" stroke="#000000" stroke-width="3.3174" x1="194.168" y1="347.16699" x2="290.30701" y2="158.806" id="line30"/><line fill="none" stroke="#000000" stroke-width="3.3174" x1="184.51401" y1="343.17401" x2="281.04901" y2="153.16499" id="line32"/><line fill="none" stroke="#000000" stroke-width="3.3174" x1="173.64101" y1="336.83301" x2="271.22101" y2="146.65401" id="line34"/><line fill="none" stroke="#000000" stroke-width="3.3174" x1="166.595" y1="327.23401" x2="262.26999" y2="141.69099" id="line36"/><line fill="none" stroke="#000000" stroke-width="3.3174" x1="156.711" y1="317.14301" x2="250.91499" y2="135.99699" id="line38"/><line fill="none" stroke="#000000" stroke-width="3.3174" x1="149.373" y1="306.121" x2="239.27901" y2="130.83" id="line40"/><line fill="none" stroke="#000000" stroke-width="3.3174" x1="140.52901" y1="294.92999" x2="227.74001" y2="126.414" id="line42"/><line fill="none" stroke="#000000" stroke-width="3.3174" x1="132.24001" y1="281.88599" x2="213.841" y2="122.165" id="line44"/><line fill="none" stroke="#000000" stroke-width="3.3174" x1="122.969" y1="268.20099" x2="200.265" y2="119.666" id="line46"/><line fill="none" stroke="#000000" stroke-width="3.3174" x1="118.832" y1="252.98599" x2="187.16901" y2="118.929" id="line48"/><path fill="none" stroke="#000000" stroke-width="4.93" stroke-linecap="round" stroke-linejoin="round" stroke-miterlimit="10" d="m 185.582,119.42 c -34.695,5.743 -54.304,88.204 -63.351,115.049 -9.066,26.848 -3.028,26.848 9.047,46.014 12.057,19.187 34.695,55.615 63.351,69.037 28.657,13.426 85.988,36.434 108.605,11.504 22.64,-24.926 46.771,-120.812 27.164,-161.081 C 310.789,159.691 220.275,113.658 185.582,119.42" id="path52"/></g></svg>