<?xml version="1.0" ?><!-- Created with Inkscape (http://www.inkscape.org/) --><svg xmlns="http://www.w3.org/2000/svg" xmlns:svg="http://www.w3.org/2000/svg" width="35" height="35" viewBox="0 0 9.2604163 9.2604167" version="1.1" id="svg12032" shape-rendering="crispEdges"><text id="varT_1_" font-family="ArialMT" font-size="6.35px" x="-23.050844" y="-0.2167069" style="stroke-width:0.264583"/><text id="varT" font-family="ArialMT" font-size="6.35px" x="49.210884" y="-0.64252734" style="stroke-width:0.264583"/><path d="m 8.587964,4.7495125 c 0,1.1012845 -0.3702261,2.0280638 -1.109917,2.7800286 C 6.7383561,8.2811968 5.8263396,8.657411 4.7426064,8.657411 3.6710517,8.657411 2.7620798,8.27826 2.0161474,7.5205762 1.2703672,6.7621196 0.89724879,5.8387409 0.89724879,4.7495125 c 0,-1.1012845 0.37022601,-2.0296094 1.10961251,-2.7846656 0.7399954,-0.754747 1.6521641,-1.1323523 2.7357451,-1.1323523 1.0774917,0 1.9879859,0.379151 2.7308737,1.1371439 C 8.2163678,2.727786 8.587964,3.6542561 8.587964,4.7495125 Z M 4.9437037,8.3675993 c -0.09758,0.012674 -0.1980527,0.019321 -0.3014176,0.019321 -0.9133866,0 -1.7200592,-0.363849 -2.42017,-1.0913923 C 1.8689399,6.9315243 1.614714,6.569221 1.4591338,6.2087725 1.3041625,5.8477057 1.2173908,5.4144565 1.1989708,4.9091794 H 4.8175041 V 8.3675993 Z M 4.7791418,4.8705379 V 1.1223063 c -1.0019851,0 -1.852348,0.355657 -2.5510887,1.0668163 C 1.5055643,2.9251671 1.1683724,3.8190237 1.2169341,4.8705379 Z M 7.2369129,2.2416751 c 0.4929243,0.5035768 0.8063682,0.9324982 0.9401793,1.2869186 0.091339,0.2299946 0.137008,0.5970894 0.137008,1.1006663 0,0.093512 -0.00502,0.1868706 -0.014614,0.2799194 H 4.8171996 V 1.1223063 c 0.8946622,0.012674 1.701487,0.3857974 2.4197133,1.1193688 z M 8.299486,4.9091794 H 4.852365 V 8.3675993 C 5.7729065,8.3181381 6.5712063,7.965727 7.2478736,7.3106753 7.9488978,6.6305838 8.299486,5.8299306 8.299486,4.9091794 Z" id="path2665" style="stroke-width:1.32292"/></svg>